<?xml version="1.0" encoding="utf-8"?>
<!-- Generator: Adobe Illustrator 18.0.0, SVG Export Plug-In . SVG Version: 6.00 Build 0)  -->
<!DOCTYPE svg PUBLIC "-//W3C//DTD SVG 1.1//EN" "http://www.w3.org/Graphics/SVG/1.1/DTD/svg11.dtd">
<svg version="1.1" id="Layer_1" xmlns="http://www.w3.org/2000/svg" xmlns:xlink="http://www.w3.org/1999/xlink" x="0px" y="0px"
	 viewBox="0 0 400 400" enable-background="new 0 0 400 400" xml:space="preserve">
<g>
	<path d="M217.3,382.7V59.1l77.2,77.2c6.8,6.8,17.7,6.8,24.5,0c6.8-6.8,6.8-17.7,0-24.5L212.2,5.1c-6.8-6.8-17.7-6.8-24.5,0
		L81,111.8c-3.4,3.4-5.1,7.8-5.1,12.2s1.7,8.9,5.1,12.2c6.8,6.8,17.7,6.8,24.5,0l77.2-77.2v323.6c0,9.6,7.8,17.3,17.3,17.3
		C209.6,400,217.3,392.2,217.3,382.7z"/>
</g>
</svg>