<?xml version="1.0" encoding="utf-8"?>
<!-- Generator: Adobe Illustrator 18.0.0, SVG Export Plug-In . SVG Version: 6.00 Build 0)  -->
<!DOCTYPE svg PUBLIC "-//W3C//DTD SVG 1.1//EN" "http://www.w3.org/Graphics/SVG/1.1/DTD/svg11.dtd">
<svg version="1.1" id="Layer_1" xmlns="http://www.w3.org/2000/svg" xmlns:xlink="http://www.w3.org/1999/xlink" x="0px" y="0px"
	 viewBox="0 0 400 400" enable-background="new 0 0 400 400" xml:space="preserve">
<g>
	<path d="M182.7,17.3v323.6l-77.2-77.2c-6.8-6.8-17.7-6.8-24.5,0c-6.8,6.8-6.8,17.7,0,24.5l106.8,106.8c6.8,6.8,17.7,6.8,24.5,0
		L319,288.2c3.4-3.4,5.1-7.8,5.1-12.2c0-4.4-1.7-8.9-5.1-12.2c-6.8-6.8-17.7-6.8-24.5,0l-77.2,77.2V17.3C217.3,7.8,209.6,0,200,0
		C190.4,0,182.7,7.8,182.7,17.3z"/>
</g>
</svg>